<svg version="1.1" id="Layer_1" xmlns="http://www.w3.org/2000/svg" xmlns:xlink="http://www.w3.org/1999/xlink" x="0px" y="0px"
	 width="100%" viewBox="0 0 512 512" enable-background="new 0 0 512 512" xml:space="preserve">
<path fill="#FFFFFF" opacity="1.000000" stroke="none" 
	d="
M118.000000,513.000000 
	C79.019730,513.000000 40.039463,513.000000 1.029597,513.000000 
	C1.029597,342.439423 1.029597,171.878815 1.029597,1.000000 
	C79.353943,1.000000 157.708313,1.000000 236.298218,1.330188 
	C221.959427,2.764614 208.385071,7.628498 195.708771,14.332364 
	C178.567902,23.397331 164.246582,36.110699 152.689789,51.828556 
	C144.288300,63.255028 138.126678,75.842056 134.188690,89.353813 
	C130.133926,103.266312 129.499786,117.667770 129.951538,132.140610 
	C130.395279,146.356277 133.484589,160.024887 139.101791,172.925339 
	C149.604126,197.044998 166.273087,216.109863 188.619125,230.086578 
	C208.314377,242.405319 229.808746,248.304001 253.502899,247.883514 
	C261.853210,247.282150 269.829132,247.138901 277.615021,245.848755 
	C290.199310,243.763474 302.100311,239.266861 313.255463,233.101715 
	C325.672180,226.239304 336.291016,217.046158 345.853455,206.606445 
	C355.985260,195.545135 363.763794,183.039261 369.064392,168.997131 
	C376.441589,149.453827 378.599854,129.360779 376.072266,108.617653 
	C374.585541,96.416817 371.720337,84.620705 366.658386,73.497055 
	C359.257385,57.233437 348.576630,43.393391 335.114929,31.496634 
	C319.697052,17.871092 302.359833,8.337930 282.235748,3.942115 
	C277.820282,2.977624 273.411743,1.981536 269.000000,0.999999 
	C350.292664,1.000000 431.585327,1.000000 512.938965,1.000000 
	C512.938965,171.666672 512.938965,342.333344 512.938965,513.000000 
	C473.564667,513.000000 434.251007,513.000000 394.655457,512.631836 
	C397.288757,511.841309 400.231812,511.557068 403.114777,510.975189 
	C431.947205,505.155914 452.659271,488.764160 463.676361,461.643555 
	C467.645142,451.873535 469.232391,440.687195 469.690582,430.051727 
	C470.285492,416.241669 469.405945,402.250946 467.812897,388.494110 
	C465.923981,372.181854 463.069275,355.937958 459.714081,339.856140 
	C457.853973,330.940369 454.688904,322.172028 451.097961,313.770660 
	C445.297607,300.199921 438.098846,287.398712 427.395905,276.835510 
	C419.076752,268.624939 410.261292,261.445526 399.397644,256.604523 
	C390.522430,252.649597 381.299042,251.304932 371.922424,249.851151 
	C359.354248,247.902573 347.687225,248.319778 336.776398,256.477966 
	C327.771973,263.210693 318.167969,269.496460 308.025726,274.273499 
	C290.765991,282.402893 272.768433,288.731964 252.647003,287.133514 
	C236.537933,286.300110 221.642670,282.161041 207.789551,275.155579 
	C196.670593,269.532776 186.367218,262.317719 175.522339,256.123627 
	C170.147385,253.053726 164.424469,248.610550 158.759583,248.457047 
	C148.046906,248.166779 137.006027,249.470276 126.562866,252.009171 
	C106.704018,256.837189 91.097015,268.632477 78.665527,284.791168 
	C64.436592,303.286163 55.870705,324.368439 51.153694,346.924957 
	C47.936012,362.311798 45.736816,377.968170 44.078484,393.609680 
	C42.176453,411.549774 41.289227,429.673096 45.039875,447.503693 
	C51.179752,476.692810 68.395798,496.741058 96.435379,507.076691 
	C103.404472,509.645569 110.800316,511.056702 118.000000,513.000000 
z"/>
<path fill="#2682FF" opacity="1.000000" stroke="none" 
	d="
M253.091339,287.213074 
	C272.768433,288.731964 290.765991,282.402893 308.025726,274.273499 
	C318.167969,269.496460 327.771973,263.210693 336.776398,256.477966 
	C347.687225,248.319778 359.354248,247.902573 371.922424,249.851151 
	C381.299042,251.304932 390.522430,252.649597 399.397644,256.604523 
	C410.261292,261.445526 419.076752,268.624939 427.395905,276.835510 
	C438.098846,287.398712 445.297607,300.199921 451.097961,313.770660 
	C454.688904,322.172028 457.853973,330.940369 459.714081,339.856140 
	C463.069275,355.937958 465.923981,372.181854 467.812897,388.494110 
	C469.405945,402.250946 470.285492,416.241669 469.690582,430.051727 
	C469.232391,440.687195 467.645142,451.873535 463.676361,461.643555 
	C452.659271,488.764160 431.947205,505.155914 403.114777,510.975189 
	C400.231812,511.557068 397.288757,511.841309 394.186798,512.631836 
	C347.312439,513.000000 300.624878,513.000000 253.483459,512.531494 
	C253.050171,437.113068 253.070755,362.163055 253.091339,287.213074 
z"/>
<path fill="#6AA9FF" opacity="1.000000" stroke="none" 
	d="
M252.647003,287.133514 
	C253.070755,362.163055 253.050171,437.113068 253.014801,512.531494 
	C208.312439,513.000000 163.624878,513.000000 118.468658,513.000000 
	C110.800316,511.056702 103.404472,509.645569 96.435379,507.076691 
	C68.395798,496.741058 51.179752,476.692810 45.039875,447.503693 
	C41.289227,429.673096 42.176453,411.549774 44.078484,393.609680 
	C45.736816,377.968170 47.936012,362.311798 51.153694,346.924957 
	C55.870705,324.368439 64.436592,303.286163 78.665527,284.791168 
	C91.097015,268.632477 106.704018,256.837189 126.562866,252.009171 
	C137.006027,249.470276 148.046906,248.166779 158.759583,248.457047 
	C164.424469,248.610550 170.147385,253.053726 175.522339,256.123627 
	C186.367218,262.317719 196.670593,269.532776 207.789551,275.155579 
	C221.642670,282.161041 236.537933,286.300110 252.647003,287.133514 
z"/>
<path fill="#F5A86C" opacity="1.000000" stroke="none" 
	d="
M268.533142,0.999999 
	C273.411743,1.981536 277.820282,2.977624 282.235748,3.942115 
	C302.359833,8.337930 319.697052,17.871092 335.114929,31.496634 
	C348.576630,43.393391 359.257385,57.233437 366.658386,73.497055 
	C371.720337,84.620705 374.585541,96.416817 376.072266,108.617653 
	C378.599854,129.360779 376.441589,149.453827 369.064392,168.997131 
	C363.763794,183.039261 355.985260,195.545135 345.853455,206.606445 
	C336.291016,217.046158 325.672180,226.239304 313.255463,233.101715 
	C302.100311,239.266861 290.199310,243.763474 277.615021,245.848755 
	C269.829132,247.138901 261.853210,247.282150 253.490646,247.429077 
	C253.012466,164.945251 253.006241,82.972626 253.000000,1.000000 
	C258.022095,1.000000 263.044189,1.000000 268.533142,0.999999 
z"/>
<path fill="#FFBB85" opacity="1.000000" stroke="none" 
	d="
M252.533142,1.000000 
	C253.006241,82.972626 253.012466,164.945251 253.030960,247.372330 
	C229.808746,248.304001 208.314377,242.405319 188.619125,230.086578 
	C166.273087,216.109863 149.604126,197.044998 139.101791,172.925339 
	C133.484589,160.024887 130.395279,146.356277 129.951538,132.140610 
	C129.499786,117.667770 130.133926,103.266312 134.188690,89.353813 
	C138.126678,75.842056 144.288300,63.255028 152.689789,51.828556 
	C164.246582,36.110699 178.567902,23.397331 195.708771,14.332364 
	C208.385071,7.628498 221.959427,2.764614 236.766876,1.330188 
	C242.022095,1.000000 247.044189,1.000000 252.533142,1.000000 
z"/>
</svg>